<svg width="20" height="23" viewBox="0 0 20 23" fill="none" xmlns="http://www.w3.org/2000/svg">
<path d="M7.35419 20.4305C8.05933 21.0529 8.98557 21.4305 10 21.4305C11.0145 21.4305 11.9407 21.0529 12.6458 20.4305M16 7.43051C16 5.83921 15.3679 4.31309 14.2427 3.18787C13.1174 2.06265 11.5913 1.43051 10 1.43051C8.40872 1.43051 6.8826 2.06265 5.75738 3.18787C4.63216 4.31309 4.00002 5.83921 4.00002 7.43051C4.00002 10.5207 3.22049 12.6365 2.34968 14.0359C1.61515 15.2164 1.24788 15.8066 1.26134 15.9713C1.27626 16.1536 1.31488 16.2231 1.46179 16.3321C1.59448 16.4305 2.19261 16.4305 3.38887 16.4305H16.6112C17.8074 16.4305 18.4056 16.4305 18.5382 16.3321C18.6852 16.2231 18.7238 16.1536 18.7387 15.9713C18.7522 15.8066 18.3849 15.2164 17.6504 14.0359C16.7795 12.6365 16 10.5207 16 7.43051Z" stroke="#868B90" stroke-width="2" stroke-linecap="round" stroke-linejoin="round"/>
</svg>
