<svg width="22" height="20" viewBox="0 0 22 20" fill="none" xmlns="http://www.w3.org/2000/svg">
<path d="M15 1.89827C16.4817 2.63462 17.5 4.16365 17.5 5.93051C17.5 7.69737 16.4817 9.2264 15 9.96275M17 15.1969C18.5115 15.8808 19.8725 16.9955 21 18.4305M1 18.4305C2.94649 15.9531 5.58918 14.4305 8.5 14.4305C11.4108 14.4305 14.0535 15.9531 16 18.4305M13 5.93051C13 8.41579 10.9853 10.4305 8.5 10.4305C6.01472 10.4305 4 8.41579 4 5.93051C4 3.44523 6.01472 1.43051 8.5 1.43051C10.9853 1.43051 13 3.44523 13 5.93051Z" stroke="#868B90" stroke-width="2" stroke-linecap="round" stroke-linejoin="round"/>
</svg>
