<svg width="22" height="23" viewBox="0 0 22 23" fill="none" xmlns="http://www.w3.org/2000/svg">
<path d="M15 15.4305C15 15.4305 13.5 13.4305 11 13.4305C8.5 13.4305 7 15.4305 7 15.4305M16 8.67051C15.605 9.15551 15.065 9.43051 14.5 9.43051C13.935 9.43051 13.41 9.15551 13 8.67051M9 8.67051C8.605 9.15551 8.065 9.43051 7.5 9.43051C6.935 9.43051 6.41 9.15551 6 8.67051M21 11.4305C21 16.9534 16.5228 21.4305 11 21.4305C5.47715 21.4305 1 16.9534 1 11.4305C1 5.90766 5.47715 1.43051 11 1.43051C16.5228 1.43051 21 5.90766 21 11.4305Z" stroke="#868B90" stroke-width="2" stroke-linecap="round" stroke-linejoin="round"/>
</svg>
