<svg width="22" height="23" viewBox="0 0 22 23" fill="none" xmlns="http://www.w3.org/2000/svg">
<path d="M12.5295 7.78237C11.9571 8.19046 11.2566 8.43051 10.5 8.43051C8.567 8.43051 7 6.86351 7 4.93051C7 2.99751 8.567 1.43051 10.5 1.43051C11.753 1.43051 12.8522 2.08893 13.4705 3.07865M5 19.5177H7.61029C7.95063 19.5177 8.28888 19.5582 8.61881 19.6392L11.3769 20.3094C11.9753 20.4552 12.5988 20.4694 13.2035 20.3519L16.253 19.7586C17.0585 19.6017 17.7996 19.216 18.3803 18.651L20.5379 16.5522C21.154 15.9539 21.154 14.9829 20.5379 14.3836C19.9832 13.8439 19.1047 13.7832 18.4771 14.2408L15.9626 16.0754C15.6025 16.3386 15.1643 16.4803 14.7137 16.4803H12.2855L13.8311 16.4803C14.7022 16.4803 15.4079 15.7938 15.4079 14.9464V14.6397C15.4079 13.936 14.9156 13.3225 14.2141 13.1524L11.8286 12.5723C11.4404 12.4781 11.0428 12.4305 10.6431 12.4305C9.67833 12.4305 7.93189 13.2293 7.93189 13.2293L5 14.4554M19 5.93051C19 7.86351 17.433 9.43051 15.5 9.43051C13.567 9.43051 12 7.86351 12 5.93051C12 3.99751 13.567 2.43051 15.5 2.43051C17.433 2.43051 19 3.99751 19 5.93051ZM1 14.0305L1 19.8305C1 20.3906 1 20.6706 1.10899 20.8845C1.20487 21.0727 1.35785 21.2256 1.54601 21.3215C1.75992 21.4305 2.03995 21.4305 2.6 21.4305H3.4C3.96005 21.4305 4.24008 21.4305 4.45399 21.3215C4.64215 21.2256 4.79513 21.0727 4.89101 20.8845C5 20.6706 5 20.3906 5 19.8305V14.0305C5 13.4705 5 13.1904 4.89101 12.9765C4.79513 12.7884 4.64215 12.6354 4.45399 12.5395C4.24008 12.4305 3.96005 12.4305 3.4 12.4305L2.6 12.4305C2.03995 12.4305 1.75992 12.4305 1.54601 12.5395C1.35785 12.6354 1.20487 12.7884 1.10899 12.9765C1 13.1904 1 13.4705 1 14.0305Z" stroke="#868B90" stroke-width="2" stroke-linecap="round" stroke-linejoin="round"/>
</svg>
