<svg width="23" height="23" viewBox="0 0 23 23" fill="none" xmlns="http://www.w3.org/2000/svg">
<path d="M16.7447 2.24332C17.7095 1.24684 19.3035 1.23395 20.2843 2.21469C21.2381 3.16857 21.2559 4.70954 20.3242 5.68514L17.5456 8.59491C17.3278 8.82298 17.2189 8.93702 17.1518 9.07058C17.0924 9.18881 17.057 9.31766 17.0478 9.44965C17.0373 9.59876 17.0728 9.7524 17.1437 10.0597L18.8716 17.5472C18.9444 17.8626 18.9808 18.0204 18.969 18.1729C18.9586 18.3079 18.9209 18.4394 18.8582 18.5594C18.7873 18.695 18.6728 18.8095 18.4439 19.0384L18.0732 19.4092C17.467 20.0153 17.164 20.3184 16.8538 20.3732C16.5829 20.4211 16.3043 20.3554 16.0834 20.1914C15.8305 20.0036 15.695 19.597 15.4239 18.7837L13.4141 12.7545L10.0688 16.0998C9.86914 16.2995 9.76929 16.3993 9.7025 16.5169C9.64334 16.6211 9.60337 16.735 9.5845 16.8533C9.5632 16.9868 9.57879 17.1272 9.60998 17.4079L9.79369 19.0612C9.82487 19.3419 9.84047 19.4822 9.81917 19.6158C9.8003 19.7341 9.76033 19.848 9.70116 19.9522C9.63437 20.0698 9.53453 20.1696 9.33484 20.3693L9.13734 20.5668C8.66428 21.0399 8.42775 21.2764 8.1649 21.3449C7.93436 21.405 7.68993 21.3808 7.47565 21.2766C7.23134 21.1579 7.04579 20.8796 6.67469 20.323L5.10637 17.9705C5.04007 17.871 5.00692 17.8213 4.96843 17.7762C4.93424 17.7361 4.89694 17.6988 4.85688 17.6646C4.81178 17.6262 4.76206 17.593 4.66261 17.5267L2.31012 15.9584C1.75348 15.5873 1.47515 15.4017 1.35643 15.1574C1.2523 14.9431 1.2281 14.6987 1.28818 14.4682C1.35668 14.2053 1.59321 13.9688 2.06627 13.4957L2.26378 13.2982C2.46346 13.0985 2.56331 12.9987 2.68089 12.9319C2.78505 12.8727 2.899 12.8328 3.0173 12.8139C3.15083 12.7926 3.29117 12.8082 3.57184 12.8394L5.22523 13.0231C5.5059 13.0543 5.64623 13.0699 5.77977 13.0486C5.89807 13.0297 6.01202 12.9897 6.11618 12.9306C6.23376 12.8638 6.3336 12.7639 6.53329 12.5643L9.87861 9.21893L3.84933 7.20917C3.0361 6.9381 2.62949 6.80256 2.44169 6.54965C2.27771 6.32881 2.21193 6.05018 2.25984 5.77932C2.31471 5.46913 2.61778 5.16605 3.22393 4.55991L3.5947 4.18914C3.82359 3.96025 3.93804 3.8458 4.07363 3.77491C4.19364 3.71216 4.32514 3.67445 4.46017 3.66405C4.61272 3.6523 4.77043 3.6887 5.08584 3.76148L12.545 5.48282C12.8549 5.55435 13.0099 5.59011 13.1595 5.57947C13.304 5.5692 13.4445 5.52767 13.5713 5.45776C13.7027 5.38534 13.8133 5.27107 14.0346 5.04254L16.7447 2.24332Z" stroke="#868B90" stroke-width="2" stroke-linecap="round" stroke-linejoin="round"/>
</svg>
