<svg width="22" height="19" viewBox="0 0 22 19" fill="none" xmlns="http://www.w3.org/2000/svg">
<path d="M5 8.43051V12.4305M17 6.43051V10.4305M16 1.43051C18.4487 1.43051 19.7731 1.80527 20.4321 2.09595C20.5199 2.13467 20.5638 2.15402 20.6904 2.27488C20.7663 2.34733 20.9049 2.5599 20.9405 2.6586C21 2.82325 21 2.91325 21 3.09325V13.8417C21 14.7504 21 15.2048 20.8637 15.4384C20.7251 15.6759 20.5914 15.7864 20.3319 15.8777C20.0769 15.9675 19.562 15.8685 18.5322 15.6707C17.8114 15.5322 16.9565 15.4305 16 15.4305C13 15.4305 10 17.4305 6 17.4305C3.55129 17.4305 2.22687 17.0557 1.56788 16.7651C1.48012 16.7264 1.43624 16.707 1.3096 16.5861C1.23369 16.5137 1.09512 16.3011 1.05947 16.2024C1 16.0378 1 15.9478 1 15.7678L1 5.01937C1 4.1106 1 3.65621 1.13628 3.42265C1.2749 3.18508 1.40859 3.07463 1.66806 2.98332C1.92314 2.89356 2.43803 2.99249 3.46783 3.19036C4.18862 3.32885 5.04348 3.43051 6 3.43051C9 3.43051 12 1.43051 16 1.43051ZM13.5 9.43051C13.5 10.8112 12.3807 11.9305 11 11.9305C9.61929 11.9305 8.5 10.8112 8.5 9.43051C8.5 8.0498 9.61929 6.93051 11 6.93051C12.3807 6.93051 13.5 8.0498 13.5 9.43051Z" stroke="#868B90" stroke-width="2" stroke-linecap="round" stroke-linejoin="round"/>
</svg>
