<svg width="22" height="23" viewBox="0 0 22 23" fill="none" xmlns="http://www.w3.org/2000/svg">
<path d="M5 5.43051L7 3.43051M7 3.43051L5 1.43051M7 3.43051H5C2.79086 3.43051 1 5.22137 1 7.43051M17 17.4305L15 19.4305M15 19.4305L17 21.4305M15 19.4305H17C19.2091 19.4305 21 17.6397 21 15.4305M9.18903 5.93051C9.85509 3.34267 12.2042 1.43051 15 1.43051C18.3137 1.43051 21 4.1168 21 7.43051C21 10.2262 19.0879 12.5754 16.5001 13.2415M13 15.4305C13 18.7442 10.3137 21.4305 7 21.4305C3.68629 21.4305 1 18.7442 1 15.4305C1 12.1168 3.68629 9.43051 7 9.43051C10.3137 9.43051 13 12.1168 13 15.4305Z" stroke="#868B90" stroke-width="2" stroke-linecap="round" stroke-linejoin="round"/>
</svg>
