<svg width="22" height="23" viewBox="0 0 22 23" fill="none" xmlns="http://www.w3.org/2000/svg">
<path d="M11 14.4305C12.6569 14.4305 14 13.0874 14 11.4305C14 9.77369 12.6569 8.43054 11 8.43054C9.34315 8.43054 8 9.77369 8 11.4305C8 13.0874 9.34315 14.4305 11 14.4305Z" stroke="#868B90" stroke-width="2" stroke-linecap="round" stroke-linejoin="round"/>
<path d="M17.7273 14.1578C17.6063 14.432 17.5702 14.7362 17.6236 15.0311C17.6771 15.326 17.8177 15.5981 18.0273 15.8124L18.0818 15.8669C18.2509 16.0358 18.385 16.2363 18.4765 16.457C18.568 16.6777 18.6151 16.9143 18.6151 17.1533C18.6151 17.3922 18.568 17.6288 18.4765 17.8495C18.385 18.0702 18.2509 18.2708 18.0818 18.4396C17.913 18.6087 17.7124 18.7428 17.4917 18.8343C17.271 18.9258 17.0344 18.9729 16.7955 18.9729C16.5565 18.9729 16.3199 18.9258 16.0992 18.8343C15.8785 18.7428 15.678 18.6087 15.5091 18.4396L15.4545 18.3851C15.2403 18.1755 14.9682 18.0349 14.6733 17.9814C14.3784 17.928 14.0742 17.9641 13.8 18.0851C13.5311 18.2003 13.3018 18.3917 13.1403 18.6356C12.9788 18.8795 12.8921 19.1653 12.8909 19.4578V19.6124C12.8909 20.0946 12.6994 20.557 12.3584 20.898C12.0174 21.239 11.5549 21.4305 11.0727 21.4305C10.5905 21.4305 10.1281 21.239 9.78708 20.898C9.4461 20.557 9.25455 20.0946 9.25455 19.6124V19.5305C9.24751 19.2296 9.15011 18.9378 8.97501 18.693C8.79991 18.4482 8.55521 18.2617 8.27273 18.1578C7.99853 18.0368 7.69437 18.0007 7.39947 18.0542C7.10456 18.1076 6.83244 18.2482 6.61818 18.4578L6.56364 18.5124C6.39478 18.6814 6.19425 18.8155 5.97353 18.907C5.7528 18.9985 5.51621 19.0456 5.27727 19.0456C5.03834 19.0456 4.80174 18.9985 4.58102 18.907C4.36029 18.8155 4.15977 18.6814 3.99091 18.5124C3.82186 18.3435 3.68775 18.143 3.59626 17.9223C3.50476 17.7015 3.45766 17.4649 3.45766 17.226C3.45766 16.9871 3.50476 16.7505 3.59626 16.5297C3.68775 16.309 3.82186 16.1085 3.99091 15.9396L4.04545 15.8851C4.25503 15.6708 4.39562 15.3987 4.4491 15.1038C4.50257 14.8089 4.46647 14.5047 4.34545 14.2305C4.23022 13.9617 4.03887 13.7323 3.79497 13.5708C3.55107 13.4093 3.26526 13.3226 2.97273 13.3215H2.81818C2.33597 13.3215 1.87351 13.1299 1.53253 12.7889C1.19156 12.4479 1 11.9855 1 11.5033C1 11.0211 1.19156 10.5586 1.53253 10.2176C1.87351 9.87665 2.33597 9.68509 2.81818 9.68509H2.9C3.2009 9.67805 3.49273 9.58065 3.73754 9.40555C3.98236 9.23045 4.16883 8.98576 4.27273 8.70327C4.39374 8.42907 4.42984 8.12491 4.37637 7.83001C4.3229 7.5351 4.18231 7.26298 3.97273 7.04872L3.91818 6.99418C3.74913 6.82532 3.61503 6.62479 3.52353 6.40407C3.43203 6.18335 3.38493 5.94675 3.38493 5.70781C3.38493 5.46888 3.43203 5.23228 3.52353 5.01156C3.61503 4.79084 3.74913 4.59031 3.91818 4.42145C4.08704 4.2524 4.28757 4.1183 4.50829 4.0268C4.72901 3.9353 4.96561 3.8882 5.20455 3.8882C5.44348 3.8882 5.68008 3.9353 5.9008 4.0268C6.12152 4.1183 6.32205 4.2524 6.49091 4.42145L6.54545 4.476C6.75971 4.68558 7.03183 4.82617 7.32674 4.87964C7.62164 4.93311 7.9258 4.89701 8.2 4.776H8.27273C8.54161 4.66076 8.77093 4.46941 8.93245 4.22551C9.09397 3.98161 9.18065 3.6958 9.18182 3.40327V3.24872C9.18182 2.76651 9.37338 2.30405 9.71435 1.96308C10.0553 1.6221 10.5178 1.43054 11 1.43054C11.4822 1.43054 11.9447 1.6221 12.2856 1.96308C12.6266 2.30405 12.8182 2.76651 12.8182 3.24872V3.33054C12.8193 3.62308 12.906 3.90888 13.0676 4.15278C13.2291 4.39668 13.4584 4.58803 13.7273 4.70327C14.0015 4.82428 14.3056 4.86038 14.6005 4.80691C14.8954 4.75344 15.1676 4.61285 15.3818 4.40327L15.4364 4.34872C15.6052 4.17968 15.8057 4.04557 16.0265 3.95407C16.2472 3.86257 16.4838 3.81548 16.7227 3.81548C16.9617 3.81548 17.1983 3.86257 17.419 3.95407C17.6397 4.04557 17.8402 4.17968 18.0091 4.34872C18.1781 4.51758 18.3122 4.71811 18.4037 4.93883C18.4952 5.15956 18.5423 5.39615 18.5423 5.63509C18.5423 5.87402 18.4952 6.11062 18.4037 6.33134C18.3122 6.55207 18.1781 6.75259 18.0091 6.92145L17.9545 6.976C17.745 7.19025 17.6044 7.46237 17.5509 7.75728C17.4974 8.05218 17.5335 8.35635 17.6545 8.63054V8.70327C17.7698 8.97215 17.9611 9.20147 18.205 9.36299C18.4489 9.52451 18.7347 9.61119 19.0273 9.61236H19.1818C19.664 9.61236 20.1265 9.80392 20.4675 10.1449C20.8084 10.4859 21 10.9483 21 11.4305C21 11.9128 20.8084 12.3752 20.4675 12.7162C20.1265 13.0572 19.664 13.2487 19.1818 13.2487H19.1C18.8075 13.2499 18.5217 13.3366 18.2778 13.4981C18.0339 13.6596 17.8425 13.8889 17.7273 14.1578Z" stroke="#868B90" stroke-width="2" stroke-linecap="round" stroke-linejoin="round"/>
</svg>
